<?xml version="1.0" encoding="utf-8"?>
<!-- Generator: Adobe Illustrator 24.0.0, SVG Export Plug-In . SVG Version: 6.00 Build 0)  -->
<svg version="1.1" id="Calque_1" xmlns="http://www.w3.org/2000/svg" xmlns:xlink="http://www.w3.org/1999/xlink" x="0px" y="0px"
	 viewBox="0 0 2500 2246" style="enable-background:new 0 0 2500 2246;" xml:space="preserve">
<style type="text/css">
	.st0{fill:#FFFFFF;}
	.st1{fill:#53C1DE;}
	.st2{font-family:'MyriadPro-Regular';}
	.st3{font-size:483.9974px;}
</style>
<path class="st0" d="M262.4,964.9c0,149.2,145.7,288.4,375.3,366.9c-45.9,230.8-8.2,416.9,117.5,489.4
	c129.2,74.5,321.7,22.9,504.4-136.8c178.1,153.3,358.1,213.6,483.7,140.9c129.1-74.7,168.4-273.4,121.2-511.5
	c239.2-79.1,373-197.8,373-348.9c0-145.7-145.9-271.8-372.5-349.7c50.7-247.9,7.7-429.5-123.2-504.9
	c-126.2-72.8-308.3-9.3-489,147.9c-188-166.9-368.3-217.9-499.1-142.2c-126.1,73-162.1,262.5-116.1,497.6
	C415.8,690.9,262.4,819.8,262.4,964.9z"/>
<path class="st1" d="M1817.1,692.6c-18.7-6.4-37.5-12.3-56.5-17.8c3.1-12.8,6.1-25.6,8.7-38.5c42.7-207.5,14.8-374.6-80.6-429.7
	c-91.5-52.8-241.2,2.3-392.3,133.8c-14.9,13-29.5,26.4-43.7,40.1c-9.5-9.1-19.2-18.1-29.1-26.8C1065.3,213,906.5,153.7,811.2,208.9
	c-91.4,52.9-118.5,210.1-80,406.7c3.8,19.5,8.2,38.8,13,58.1c-22.5,6.4-44.2,13.2-64.9,20.4c-185.7,64.7-304.3,166.2-304.3,271.5
	c0,108.7,127.3,217.8,320.8,283.9c15.7,5.3,31.5,10.3,47.4,14.8c-5.2,20.7-9.8,41.6-13.8,62.6c-36.7,193.2-8,346.6,83.1,399.2
	c94.2,54.3,252.2-1.5,406.1-136c12.2-10.6,24.4-21.9,36.6-33.7c15.4,14.9,31.2,29.3,47.4,43.3c149.1,128.3,296.3,180.1,387.4,127.4
	c94.1-54.5,124.7-219.3,85-419.8c-3-15.3-6.6-31-10.5-46.9c11.1-3.3,22-6.7,32.6-10.2c201.1-66.6,331.9-174.3,331.9-284.5
	C2129,860,2006.6,757.8,1817.1,692.6L1817.1,692.6z"/>
<path class="st0" d="M1773.5,1179c-9.6,3.2-19.4,6.2-29.5,9.2c-22.2-70.3-52.2-145-88.8-222.2c35-75.4,63.8-149.2,85.4-219
	c17.9,5.2,35.4,10.7,52.1,16.5c162.3,55.9,261.3,138.5,261.3,202.1C2054.1,1033.4,1947.1,1121.5,1773.5,1179L1773.5,1179z
	 M1701.5,1321.7c17.6,88.7,20.1,168.8,8.4,231.5c-10.4,56.3-31.5,93.9-57.4,108.9c-55.3,32-173.5-9.6-301-119.3
	c-14.6-12.6-29.3-26-44.1-40.2c49.4-54.1,98.8-116.9,147-186.7c84.8-7.5,164.9-19.8,237.6-36.6
	C1695.6,1293.7,1698.7,1307.9,1701.5,1321.7L1701.5,1321.7z M972.9,1656.6c-54,19.1-97,19.6-123,4.6c-55.3-31.9-78.3-155.1-47-320.3
	c3.7-19.5,8-38.9,12.8-58.2c71.8,15.9,151.4,27.3,236.4,34.2c48.5,68.3,99.4,131.1,150.6,186c-10.9,10.5-22,20.8-33.4,30.8
	C1101.2,1593.2,1033,1635.4,972.9,1656.6L972.9,1656.6z M719.9,1178.6c-85.5-29.2-156.2-67.2-204.6-108.7
	c-43.5-37.3-65.5-74.3-65.5-104.3c0-63.9,95.2-145.3,254.1-200.7c19.9-6.9,40.1-13.3,60.4-19c22,71.4,50.7,146,85.5,221.5
	c-35.2,76.6-64.4,152.5-86.6,224.7C748.7,1188,734.2,1183.4,719.9,1178.6z M804.7,601.2c-33-168.5-11.1-295.6,44-327.5
	c58.7-34,188.4,14.5,325.2,135.9c8.7,7.8,17.5,15.9,26.3,24.3c-51,54.7-101.3,117-149.4,184.9c-82.5,7.6-161.5,19.9-234.1,36.4
	C812.3,637.4,808.3,619.3,804.7,601.2L804.7,601.2z M1561.4,788.1c-17.1-29.6-34.9-58.9-53.3-87.7c56,7.1,109.6,16.5,159.9,28
	c-15.1,48.4-34,99.1-56.1,151C1595.6,848.6,1578.8,818.1,1561.4,788.1L1561.4,788.1z M1252.8,487.5c34.6,37.4,69.2,79.3,103.2,124.6
	c-69.1-3.3-138.3-3.3-207.3,0C1182.8,567.1,1217.7,525.4,1252.8,487.5L1252.8,487.5z M942.3,788.6c-17.2,29.8-33.7,60.1-49.5,90.7
	c-21.8-51.8-40.5-102.6-55.7-151.8c50-11.2,103.4-20.4,159-27.3C977.4,729.2,959.5,758.7,942.3,788.6z M997.6,1236.4
	c-57.4-6.4-111.6-15.1-161.7-26c15.5-50,34.6-102,56.9-154.9c15.9,30.6,32.4,60.9,49.7,90.8C960.2,1176.7,978.6,1206.8,997.6,1236.4
	z M1254.9,1449c-35.5-38.3-70.9-80.7-105.5-126.3c33.6,1.3,67.8,2,102.6,2c35.8,0,71.1-0.8,105.9-2.4
	C1323.7,1368.7,1289.2,1411.2,1254.9,1449z M1612.5,1052.8c23.4,53.4,43.2,105.1,58.9,154.3c-50.9,11.6-105.8,21-163.6,27.9
	c18.5-29.4,36.5-59.2,53.9-89.3C1579.3,1115.2,1596.3,1084.2,1612.5,1052.8L1612.5,1052.8z M1496.7,1108.3
	c-26.6,46.2-54.6,91.4-84.2,135.8c-52,3.7-105.8,5.6-160.6,5.6c-54.6,0-107.7-1.7-158.8-5c-30.3-44.2-58.9-89.6-85.7-136
	c-26.7-46.1-51.7-93.3-74.8-141.3c23.1-48.1,48-95.2,74.6-141.4v0c26.6-46.2,55-91.4,85.1-135.4c52.2-3.9,105.7-6,159.7-6
	c54.3,0,107.9,2.1,160,6.1c29.8,44,57.9,89,84.5,134.9c26.7,46.1,51.9,93,75.6,140.7C1548.7,1014.6,1523.5,1061.9,1496.7,1108.3
	L1496.7,1108.3z M1651.3,271.5c58.7,33.9,81.6,170.5,44.7,349.6c-2.4,11.7-5,23.3-7.9,34.9c-72.8-16.8-151.8-29.3-234.5-37.1
	c-48.2-68.6-98.1-131-148.3-185.1c13.1-12.7,26.6-25,40.3-37C1475.1,284.2,1596.2,239.7,1651.3,271.5L1651.3,271.5z"/>
<path class="st1" d="M1252,809c86.5,0,156.6,70.1,156.6,156.6c0,86.5-70.1,156.6-156.6,156.6c-86.5,0-156.6-70.1-156.6-156.6
	C1095.3,879.1,1165.5,809,1252,809"/>
<text transform="matrix(1 0 0 1 -16.708 2110.2764)" class="st1 st2 st3">React Native</text>
</svg>
