<?xml version="1.0" encoding="UTF-8"?><svg xmlns="http://www.w3.org/2000/svg" xmlns:xlink="http://www.w3.org/1999/xlink" version="1.1" id="Layer_1" x="0px" y="0px" viewBox="0 0 16 16" xml:space="preserve"><path d="M14 0H2a2 2 0 0 0-2 2v12a2 2 0 0 0 2 2h12a2 2 0 0 0 2-2V2a2 2 0 0 0-2-2z" fill="#0277BD"/><path d="M7 12a1 1 0 0 1-1 1H3a1 1 0 0 1-1-1V3a1 1 0 0 1 1-1h3a1 1 0 0 1 1 1v9z" fill="#ECEFF1"/><path d="M14 8a1 1 0 0 1-1 1h-3a1 1 0 0 1-1-1V3a1 1 0 0 1 1-1h3a1 1 0 0 1 1 1v5z" fill="#ECEFF1"/><metadata><rdfRDF xmlnsRdf="http://www.w3.org/1999/02/22-rdf-syntax-ns#" xmlnsRdfs="http://www.w3.org/2000/01/rdf-schema#" xmlnsD="http://purl.org/dc/elements/1.1/"><rdfDescription about="https://iconscout.com/legal#licenses" dcTitle="trello,logo,color,e" dcDescription="trello,logo,color,e" dcPublisher="Iconscout" dcDate="2018-02-17" dcFormat="image/svg+xml" dcLanguage="en"><dcCreator><rdfBag><rdfLi>Pixel Icons</rdfLi></rdfBag></dcCreator></rdfDescription></rdfRDF></metadata></svg>